<?xml version="1.0" encoding="UTF-8"?><svg xmlns="http://www.w3.org/2000/svg" viewBox="0 0 946.96 1042.32"><defs><style>.d{fill:#cb4b4d;}</style></defs><g id="a"/><g id="b"><g id="c"><g><path class="d" d="M943.56,359.13c-1.51-2.51-3.44-5.04-5.48-7.73-.58-.77-1.18-1.55-1.79-2.37-10.33-13.53-20.72-29.06-32.7-48.9-6.13-10.15-12.18-20.58-18.03-30.66-3.41-5.88-6.81-11.75-10.25-17.59-1.35-2.3-2.72-4.59-4.09-6.86-7.11-11.77-14.45-23.14-22.01-34.38,.11-.4,.07-.84-.15-1.22h0c-.26-.44-.7-.7-1.17-.75-11.22-16.62-22.9-32.97-34.98-49.86l-.6-.84c-3.84-5.37-8.5-11.16-15.28-11.95-4.77-.56-9.16,1.5-13.61,3.84-.62,.33-1.25,.66-1.87,.99-1.19-1.04-2.99-1.82-5.68-1.45-1.36-3.16-5.82-11.59-9.98-12.33-5.37-.95-11.01,2.98-15.54,6.15-.66,.46-1.29,.9-1.89,1.3-6.16,4.13-12.55,8.08-19,11.74-.57,.33-1.27,.68-2.02,1.06-4.32,2.19-10.86,5.51-9.88,11.29,.18,1.08,.65,1.99,1.06,2.8l1.07,2.09c-.09,.38-.03,.79,.18,1.14,.02,.03,.04,.07,.07,.1,.17,.24,.4,.41,.66,.52l2.22,4.35c-.72,.58-1.39,1.2-1.96,1.86-.33,.21-.52,.47-.59,.75-.84,1.17-1.4,2.49-1.53,4.01-.01,.15,0,.29,0,.42-12.5,7.57-24.83,15.26-36.95,22.92-3.72-1.93-11.45-3.49-22.61-5.58-5.22-.98-10.15-1.9-13.89-2.84-1.09-.27-2.44-.61-3.86-.43-1.47,.19-2.74,.92-3.76,1.5-4.36,2.49-8.83,4.97-13.15,7.36-13.09,7.24-26.63,14.74-39.05,23.82-1.67,1.23-3.76,2.75-5.14,4.91-1.24,1.93-1.78,4.16-2.27,6.13l-9.12,37.31-6.49,4.16c-.2-.18-.55-.76-.78-1.13-.64-1.11-1.46-2.44-2.95-2.64-.97-.13-1.81,.38-2.36,.72-.1,.06-.2,.12-.29,.17-4.31,2.28-8.4,4.98-12.36,7.59-1.65,1.09-3.3,2.18-4.98,3.24-1.26-2-2.98-4.55-5.69-4.44-1.26,.05-2.35,.55-3.27,1-1.24,.61-2.45,1.3-3.61,1.99,1.14-1.24,2.13-2.55,2.89-3.92,2.07-3.71,2.43-7.61,1.04-11.28-1.74-4.63-6.85-6.77-11.03-7.23-2.31-.25-4.62-.14-6.85-.04-1.87,.09-3.63,.17-5.39,.06-5.06-.32-10.2-1.58-15.16-2.8-3.9-.96-7.93-1.95-11.95-2.5-10.71-1.46-20.43,1.98-29.82,5.3-9.53,3.37-57.19,20.82-59.79,33.7l-1.93,9.55c-5.61,27.81-11.96,59.33-17.91,86.51-4.7,21.48-5.77,44.39-6.41,64.17-.13,3.98-.24,7.92-.36,11.84-1.19,40.8-2.32,79.33-16.34,119.86-8.08,23.36-23.48,47-43.36,66.57-16.21,15.95-35.33,25.39-55.58,35.38-2.92,1.44-5.86,2.89-8.82,4.37-31.12,15.6-62.12,31.95-92.78,48.89-.71-1.07-1.75-1.88-3.04-2.37-1.48-.94-4.2-1.66-5.8-1.16-.32-.12-.67-.15-1.02-.05-6.89,2.09-13.58,4.73-17.61,9.51-12.44,6.47-21.88,13.92-31.87,21.8-7.34,5.79-14.94,11.79-23.85,17.36-.64,.4-.86,1.17-.61,1.85-20.74,13.93-41.7,27.54-62.82,40.89v3.23c21.84-13.79,43.55-27.78,64.35-43.12,.25-.01,.5-.07,.73-.21,2.87-1.8,5.59-3.63,8.22-5.49-.41,3.4-.67,6.78-.78,10.15-2.25,11.22-1.34,22.23,1.54,33.56,4.37,17.21,9.48,34.32,14.88,51.22,9.3,29.11,20.93,61.31,41.8,84.36-18.02,12.4-35.25,25.94-52.17,39.23-8.47,6.66-17.24,13.54-25.93,20.16-4.64,3.53-9.43,7.1-14.41,10.53h5.4c3.72-2.66,7.36-5.37,10.89-8.05,8.72-6.63,17.49-13.52,25.97-20.19,17.03-13.38,34.39-27.02,52.52-39.47,1.56,.7,3.49-.72,3.5-2.37,13.09-8.82,26.59-16.99,40.68-23.95,.2-.1,.37-.24,.51-.41,.96-.36,1.87-.84,2.74-1.33,5.98-3.37,11.66-7.35,16.89-11.83,.42-.36,.6-.9,.53-1.41,.16-.2,.32-.38,.46-.6,1.7-2.71,2.33-7.86-4.33-16.96-.1-.13-.22-.24-.34-.33,75.24-62.73,156.87-127.9,209.73-156.98,2.07-1.14,4.15-2.28,6.24-3.42,28.58-15.62,58.13-31.77,74.32-59.84,4.2-7.29,7.34-15.19,10.37-22.83l31.11-78.46c3.77-9.52,6.22-18.64,8.58-27.46,.98-3.66,1.95-7.26,3-10.83,5.53,8.74,11.09,17.45,16.68,26.09,.53,.81,1.3,2.1,2.25,3.66,5.8,9.58,11.79,19.1,15.6,21.02,6.54,3.31,11.8-.42,16.9-4.03,2.12-1.5,4.31-3.05,6.66-4.2,120.68-59.01,234.11-136.93,334.18-205.68,.53-.37,1.1-.75,1.69-1.15,4.82-3.25,11.41-7.71,13.82-12.74,4.11-8.58,1.7-14.65-1.21-19.45Zm-291.54,115.95h-.02v-.02l.02,.02Zm7.26,6.34c-.02-.05-.02-.1-.04-.15,.6-.36,1.2-.73,1.8-1.09-.58,.42-1.17,.83-1.75,1.24Zm4.82-4.1v-.02h.01v.02Zm-16.92-9.6c-.85-1.02-1.73-1.99-2.58-2.91-3.52-3.82-7.21-7.45-11.01-10.95,3.35,2.56,6.88,4.94,10.58,7.12,8.55,5.05,18.56,8.73,30.57,11.27,27.93,5.88,57.81-.24,81.99-16.82,22.64-15.52,37.42-38.29,41.62-64.1,3.45-21.19-.92-43.22-12.29-62.05-3.88-6.42-8.53-12.4-13.82-17.79-13.37-13.61-30.55-23.86-48.37-28.87-27.52-7.73-59.6,.19-85.82,21.21-27.18,21.79-43.06,53.67-41.44,83.19,.77,13.99,4.92,27.32,12.36,39.63,4.07,6.75,9.08,13.03,14.85,18.72-5.62-4.61-11.44-8.98-17.39-13.15-.87-1.3-1.72-2.61-2.53-3.94-7.8-12.92-12.17-26.91-12.97-41.57-1.55-28.32,12.28-58.75,36.5-81.36,.18-.02,.35-.15,.37-.34,2.24-2.07,4.55-4.08,6.96-6.01,27.68-22.19,61.46-30.59,90.37-22.46,18.84,5.29,37,16.14,51.14,30.53,5.57,5.67,10.47,11.98,14.55,18.74,11.96,19.8,16.55,42.97,12.93,65.24-4.42,27.17-20,51.14-43.87,67.51-25.55,17.51-57.11,23.99-86.61,17.78-9.94-2.09-18.52-4.95-26.1-8.62Zm-35.55-42.67c-7.17-11.87-11.18-24.72-11.91-38.19-1.56-28.54,13.87-59.42,40.28-80.59,25.44-20.39,56.47-28.11,83.03-20.64,17.31,4.86,34,14.83,46.99,28.06,5.12,5.21,9.62,11,13.37,17.21,10.99,18.19,15.21,39.48,11.88,59.94-4.06,24.96-18.38,46.99-40.31,62.03-23.47,16.09-52.48,22.05-79.58,16.34-11.68-2.46-21.38-6.02-29.63-10.9-14.27-8.42-26.06-19.92-34.12-33.25Zm-63.35-107.92c.19-.09,.36-.2,.53-.33,.97-.6,1.96-1.22,2.97-1.85,1.13,1.37,2.17,2.81,3.12,4.4,.63,1.06,2.06,.1,1.59-.96-.71-1.62-1.62-3.22-2.69-4.7,1.65-1.03,3.35-2.09,5.11-3.19,1.89,1.52,3.51,3.25,4.8,5.35,.62,1.01,2.13,.09,1.57-.95-1.14-2.14-2.62-4.03-4.4-5.63,1.96-1.22,3.98-2.48,6.06-3.78,1.27,1.77,2.82,3.37,4.52,4.69,.88,.68,2.04-.46,1.21-1.28-1.46-1.45-2.69-2.97-3.81-4.61,1.29-.81,2.61-1.63,3.94-2.46,.45,.68,.89,1.36,1.34,2.03,1.97,2.97,4.01,6.05,5.88,9.14v.02c-2.59,1.6-4.95,3.63-6.88,5.99-.29,.35-.41,.81-.33,1.26,1.91,10.65,4.23,21.28,6.9,31.83-9.88-14.62-18.19-24.93-31.8-34.74,.12-.07,.23-.14,.34-.21Zm37.89,1.26c.14-.16,.35-.35,.61-.57,2.11,3.63,4.47,7.13,6.73,10.66,.28,.43,.94,.03,.68-.41-2.1-3.69-4.13-7.46-6.4-11.07,1.17-.9,2.84-2.08,4.89-3.48,2.19,3.82,4.67,7.5,7.05,11.2,.28,.43,.94,.03,.68-.41-2.19-3.84-4.29-7.77-6.67-11.51,.95-.64,1.97-1.32,3.04-2.03,2.19,3.81,4.67,7.48,7.03,11.18,.28,.43,.94,.04,.68-.41-2.18-3.83-4.28-7.75-6.65-11.47,1.44-.95,2.97-1.94,4.57-2.98,2.02,3.4,4.23,6.71,6.36,10.03,.28,.43,.94,.03,.68-.41-1.96-3.44-3.86-6.95-5.94-10.33,1.61-1.04,3.29-2.11,5.02-3.21,2.01,3.38,4.21,6.67,6.33,9.98,.28,.43,.94,.03,.68-.41-1.95-3.42-3.84-6.91-5.9-10.27,1.65-1.05,3.33-2.11,5.03-3.18,1.77,2.97,3.68,5.87,5.55,8.77-17.71,18.42-29.08,41.1-31.89,63.56-.33-1.1-.65-2.2-.98-3.3,.41-2.27,.03-4.59-1.11-6.33-.41-.63-.82-1.25-1.22-1.86-2.36-8.59-4.47-17.26-6.32-25.96,3.1,5.2,6.4,10.3,9.61,15.42,.41,.66,1.07,.26,.68-.41-3.56-6.12-7.02-12.36-10.81-18.35-.08-.13-.16-.22-.25-.3-.69-3.36-1.34-6.72-1.94-10.08,.64-.73,1.34-1.41,2.06-2.07,.03,.1,.07,.2,.13,.32,3.53,6.14,7.44,12.11,11.21,18.11,.41,.66,1.07,.26,.68-.41-3.56-6.12-7.02-12.36-10.81-18.35-.12-.18-.24-.3-.37-.39,.86-.71,1.76-1.36,2.7-1.94,.58,1.03,1.13,2.03,1.63,3.01,.02,.03,.03,.06,.06,.1v.02c.46,.74,1.41,.97,2.15,.53,.37-.22,.61-.57,.71-.95Zm88.29-56.29c2.12,3.63,4.48,7.14,6.74,10.67,0,.01,.02,.01,.02,.02-1.75,.39-3.5,.82-5.25,1.31-1.8-3.18-3.56-6.41-5.47-9.53,1.33-.83,2.65-1.65,3.96-2.47Zm-5.08,3.17c1.84,3.07,3.82,6.07,5.76,9.07-1.19,.34-2.37,.7-3.56,1.08,0-.01,0-.03,0-.04-1.56-2.81-3.01-5.72-4.8-8.39-.02-.03-.05-.04-.07-.06,.9-.56,1.78-1.12,2.67-1.67Zm-3.7,2.31s0,.05,.02,.07c1.51,2.78,3.37,5.38,5.11,8.02-2.15,.71-4.28,1.48-6.41,2.33-1.3-2.38-2.56-4.8-4.03-7.08,1.79-1.13,3.56-2.24,5.32-3.34Zm-6.41,4.03c1.32,2.31,2.83,4.51,4.31,6.72-1.81,.74-3.62,1.53-5.41,2.36-1.13-2.09-2.26-4.19-3.52-6.2,1.09-.67,1.91-1.18,2.37-1.47,.76-.48,1.5-.95,2.25-1.42Zm-5.74,3.57c1.17,2.02,2.49,3.97,3.79,5.92-1.42,.68-2.84,1.39-4.24,2.13-1.05-1.94-2.11-3.89-3.32-5.73l.06-.04c1.4-.86,2.65-1.62,3.7-2.28Zm-4.86,2.98c1.06,1.9,2.27,3.73,3.49,5.54-1.68,.9-3.34,1.85-4.99,2.84-1.01-1.87-2.02-3.73-3.15-5.52,1.72-1.06,3.28-2.02,4.65-2.86Zm-5.76,3.54c1.06,1.82,2.24,3.59,3.42,5.34-1.42,.86-2.82,1.77-4.21,2.69-1.02-1.89-2.04-3.77-3.18-5.59,1.39-.85,2.72-1.67,3.97-2.45Zm-5.08,3.13c1.08,1.85,2.28,3.65,3.48,5.43-1.74,1.18-3.46,2.41-5.17,3.68-1.09-2.01-2.18-4.04-3.39-5.98,1.75-1.08,3.44-2.13,5.07-3.13Zm-6.18,3.83c1.17,2,2.48,3.92,3.76,5.84-.88,.67-1.75,1.35-2.62,2.05-.61,.49-1.21,1-1.82,1.5-1.23-2.22-2.4-4.49-3.71-6.66,1.49-.92,2.95-1.84,4.39-2.73Zm-5.52,3.43c1.31,2.18,2.78,4.27,4.17,6.39,.02,.03,.05,.05,.07,.06-1.4,1.18-2.76,2.38-4.1,3.6-1.4-2.51-2.81-5.01-4.31-7.46,1.39-.87,2.78-1.74,4.16-2.6Zm-5.28,3.3c1.5,2.51,3.1,4.98,4.7,7.43-1.6,1.48-3.15,3-4.66,4.55-1.66-2.95-3.31-5.93-5.08-8.82,1.67-1.05,3.36-2.11,5.04-3.16Zm-157.38,90.69c-.05-.02-.11-.02-.16-.03,.1-.38,.19-.75,.3-1.12-.05,.38-.09,.77-.13,1.15Zm5.91,17.81c-.87-4.71-1.4-9.4-1.36-14.05,2.86,3.99,5.76,7.97,8.75,11.86,.7,.91,2.21,.07,1.56-.94-3.1-4.8-6.33-9.53-9.6-14.21-.15-.22-.34-.36-.54-.45,.25-3.18,.8-6.33,1.73-9.44,3.73,5.46,8.05,10.6,12.09,15.82,.69,.9,2.22,.03,1.54-.93-4.17-5.86-8.15-11.97-12.75-17.5,.36-.98,.76-1.96,1.2-2.93,.88-1.92,1.92-3.64,3.07-5.23,4.67,7.26,9.55,14.37,14.68,21.31,.68,.91,2.19,.04,1.53-.92-5.04-7.35-9.93-14.79-14.67-22.34,1.8-2.07,3.84-3.81,6.07-5.23,5.38,8.28,10.73,16.58,16.16,24.82,.63,.95,2.07,.08,1.51-.91-4.81-8.58-10.04-16.96-15.48-25.17,1.99-1.03,4.09-1.84,6.3-2.43,5.77,8.58,11.94,16.95,18.13,25.22,.67,.9,2.16,.05,1.52-.92-5.51-8.38-11.11-16.78-17.02-24.89,2.68-.49,5.46-.68,8.3-.57,6.44,7.96,13.01,15.82,19.23,23.96,.65,.86,2.11,.02,1.46-.88-5.55-7.73-11.13-15.42-17.13-22.81,4.13,.49,7.87,1.49,11.37,2.88,.04,.09,.09,.19,.15,.29,3.97,5.82,8.26,11.41,12.91,16.7,.7,.8,2.1-.32,1.47-1.18-3.34-4.5-6.59-9.04-9.78-13.63,6.28,3.3,11.87,7.84,17.68,12.87,5.76,4.99,12.32,8.74,19.92,9.01-.8,.46-1.6,.93-2.37,1.38-4.67,2.72-9.08,5.29-12.92,7.58-3.36,2-6.71,4.01-10.06,6.02-7.16,.39-14.3,2.26-21.29,4.1-2.67,.7-5.42,1.43-8.1,2.05-12.03,2.78-23.84,3.63-35.2,2.57,.02-.27,.01-.55-.04-.85Zm96.71-16.44c.28,.12,.61,.12,.95-.08,6.46-3.94,12.86-8.06,19.12-12.32,.28,.92,.55,1.85,.84,2.77-.05,.07-.1,.15-.14,.24-.25,.54-.19,1.17,.12,1.69,.11,.17,.24,.34,.4,.48,.1,.08,.21,.13,.31,.19-.05,2.16-.02,4.32,.09,6.46,.4,7.25,1.64,14.34,3.71,21.22-4.55,2.14-8.62,4.22-12.55,6.35-4.81-2.94-9.64-5.83-14.43-8.71-4.95-2.97-10.06-6.01-15.69-7.87,5.75-3.47,11.51-6.94,17.26-10.41Zm33.84,40.24c.03,.05,.06,.1,.09,.15l-.12-.08s.02-.05,.03-.07Zm126.02-154.17c-13.98-3.93-29.04-4.13-44.03-.9,.02-.08,.01-.18-.04-.28-2.08-3.65-4.09-7.38-6.32-10.95,1.34-.83,2.66-1.66,3.98-2.48,2.25,3.98,4.84,7.79,7.31,11.64,.28,.43,.94,.03,.68-.41-2.26-3.98-4.43-8.05-6.91-11.9,1.12-.69,2.23-1.38,3.34-2.07,2.23,3.92,4.78,7.68,7.2,11.47,.28,.43,.94,.04,.68-.41-2.23-3.92-4.37-7.93-6.81-11.73,1.01-.62,2.01-1.24,3-1.85,0,.11,0,.23,.08,.36,2.28,4.07,4.93,7.96,7.45,11.88,.28,.43,.94,.03,.68-.41-2.31-4.05-4.51-8.21-7.05-12.12-.08-.13-.19-.19-.3-.24,1.01-.62,2.01-1.24,3.01-1.86,2.24,3.95,4.8,7.73,7.25,11.54,.28,.43,.94,.03,.68-.41-2.24-3.94-4.4-7.98-6.85-11.8,.46-.28,.93-.57,1.39-.86,.54-.33,1.03-.63,1.51-.91,2.15,3.71,4.56,7.29,6.87,10.89,.28,.43,.94,.03,.68-.41-2.11-3.72-4.16-7.51-6.44-11.14,1.1-.65,2.07-1.23,2.86-1.82,3.24,5.53,6.76,10.93,10.16,16.35,.41,.65,1.06,.25,.68-.41-3.25-5.6-6.43-11.29-9.85-16.78,.77-.76,1.27-1.58,1.41-2.63,.1-.72,0-1.48-.24-2.31l.99-.26c.05,.12,.1,.24,.19,.38,5.1,7.9,10.27,15.74,15.28,23.7,.56,.89,1.3,.44,.77-.47-4.77-8.1-9.64-16.15-14.83-23.97h-.01l2.08-.56c3.58,3.39,7.14,6.83,10.67,10.29,4.94,7.65,9.94,15.24,14.79,22.95,.56,.89,1.3,.44,.77-.47-3.53-6-7.12-11.97-10.86-17.84,9.53,9.46,18.87,19.15,27.94,28.96-7.65-4.16-15.68-7.48-23.84-9.77Zm84.4-112.93c11.96,16.73,23.54,32.93,34.65,49.38-29.04,17.19-64.14,38.04-93.99,55.78-2.47,1.38-4.93,2.77-7.4,4.14-.43,.24-.76,.53-1,.85h0c-.06,.04-.12,.09-.17,.13-11.18-11.74-22.72-23.25-34.44-34.35-.39-.37-.95-.51-1.47-.37l-5.77,1.53c-.35-.65-.74-1.33-1.19-2.08l-.22-.36c-1.59-2.64-3.59-5.87-5.63-9.12,1.25-.78,2.5-1.56,3.74-2.34,1.65,1.35,3.2,2.77,4.64,4.45,.66,.77,1.96-.29,1.38-1.11-1.14-1.63-2.49-3.22-4-4.61,2.38-1.49,4.73-2.96,7.08-4.43,.92,.97,1.93,1.85,2.97,2.68,.86,.68,2.04-.51,1.19-1.25-.89-.78-1.68-1.63-2.43-2.51,.98-.61,1.98-1.24,2.95-1.85,17.25-10.8,33.64-21.06,47.84-29.95,2.28,2.36,4.29,4.85,5.97,7.77,.56,.97,1.97,.09,1.47-.89-1.48-2.89-3.32-5.67-5.55-8.07,2.66-1.67,5.24-3.28,7.73-4.84,2.56,2.81,5.18,5.57,7.76,8.36,.74,.8,1.85-.41,1.16-1.22-2.38-2.75-4.74-5.52-7.14-8.25,2.01-1.26,3.95-2.47,5.82-3.64,3.71,6.06,8.04,11.75,12.64,17.14,.61,.71,1.87-.3,1.29-1.04-4.36-5.56-8.25-11.36-12-17.31,2.07-1.3,4.05-2.53,5.93-3.71,2.8,3.69,5.49,7.44,8.16,11.24,.63,.91,2.04,.08,1.48-.89-2.3-4-4.99-7.82-7.88-11.44,1.79-1.12,3.48-2.18,5.07-3.17,3.51,4.72,6.98,9.46,10.15,14.43,.59,.93,2,.08,1.46-.88-2.9-5.13-6.03-10.12-9.62-14.79,1.9-1.19,3.64-2.27,5.19-3.24,1.45,1.54,2.76,3.16,3.84,5.04,.55,.97,1.9,.09,1.45-.87-.89-1.92-2-3.75-3.39-5.35,3.1-1.94,5.27-3.28,6.28-3.91,.07-.04,.1-.11,.16-.15,1.13,1.34,2.2,2.78,3.24,4.24l.6,.84Zm-75.82,8.1c-.3-.42-.58-.93-.92-1.38,3.1-1.98,6.24-3.89,9.43-5.74,1.06,1.29,2.09,2.63,3.18,3.91l-9.84,5.79c-.56-.89-1.25-1.73-1.85-2.58Zm31.21-19.09c.41,1.17,.85,2.4,1.35,3.58l-7.81,4.6c-.94-.84-1.77-1.75-2.28-2.98-.11-.26-.29-.44-.49-.55,.97-.49,1.94-.99,2.92-1.47l1.14-.56c1.72-.84,3.46-1.7,5.17-2.63Zm-55.31,62.38c-.28,.18-.56,.35-.85,.53-.79,.5-1.61,1.01-2.4,1.51,.03-.09,.06-.18,.08-.27,1.06-.58,2.11-1.18,3.17-1.77Zm44.52-56.94c0,.11,0,.21,.03,.34,.36,1.39,.99,2.73,1.9,3.82l-8.38,4.93c-1.21-1.23-2.51-2.38-3.77-3.55,3.37-1.92,6.78-3.77,10.22-5.54Zm22.71-2.18c.05-.14,.07-.28,.07-.43,.19,.02,.37,.06,.54,.11-.2,.11-.41,.22-.61,.32Zm-8.39-.96c-.64-1.08-1.35-2.14-2.04-3.15,1.23-.72,2.44-1.5,3.59-2.36,.72,1.21,1.4,2.5,1.97,3.78-1.07,.41-2.24,.98-3.52,1.72Zm-40.45,8.16c.8-.41,1.54-.78,2.15-1.13,6.51-3.7,12.97-7.69,19.2-11.86,.61-.41,1.26-.86,1.94-1.33,3.85-2.69,9.11-6.37,13.21-5.64,.88,.16,2.32,1.62,3.8,3.67-3,2.27-6.51,3.99-9.91,5.65l-1.14,.56c-12.51,6.14-24.6,13.31-36,21.31l-.68-1.33c-.34-.67-.66-1.3-.77-1.91-.6-3.53,4.5-6.11,8.21-8Zm-5.34,14.04c2.74-1.93,5.52-3.81,8.34-5.64,.32,.52,.74,1.54,.94,1.9,.41,.76,.78,1.57,1.23,2.32l-7.56,4.45c-.36,.21-.72,.43-1.08,.65l-1.88-3.68Zm-142.43,71.07c.45-1.82,.91-3.7,1.86-5.19,.99-1.55,2.5-2.71,4.36-4.08,12.26-8.97,25.72-16.41,38.72-23.61,4.33-2.4,8.81-4.87,13.19-7.38,.86-.49,1.76-1,2.62-1.12,.83-.11,1.82,.14,2.7,.36,3.82,.96,8.8,1.89,14.07,2.88,8.46,1.59,21.23,3.98,22.75,5.94,1.11,1.44,3.45,4.95,6.15,9.14-.16,1.48,.79,3,2.19,3.44,2.41,3.81,4.93,7.86,7.01,11.3l.21,.36c1.21,2,2.42,4.19,2.28,5.26-.12,.88-1.69,1.81-4.06,3.21-.71,.42-1.49,.88-2.35,1.41-7.87,4.83-15.93,9.83-24.37,15.11-.04,.02-.07,.04-.11,.07-4.2,2.63-8.49,5.32-12.91,8.11-1,.63-3.56,2.21-7.16,4.41-43.94,27-58.58,36.6-63.19,40.56-.71-1.29-1.47-2.62-2.32-4.02-1.9-3.15-3.96-6.25-5.95-9.25-2.34-3.53-4.77-7.18-6.94-10.92l11.25-45.99Zm-49.94,48.03c.64-.31,1.38-.65,2.03-.68,1.02-.04,2.31,2.01,3.08,3.24,.26,.41,.5,.79,.72,1.12,.47,.68,1.4,.87,2.1,.43,2.14-1.33,4.24-2.72,6.34-4.1,3.9-2.57,7.93-5.22,12.11-7.44,.14-.08,.29-.17,.45-.26,.09-.05,.21-.13,.32-.19,.07,.09,.16,.21,.24,.33-7.67,5.04-15.4,9.97-23.21,14.8-2.99,1.85-6.06,3.64-9.12,5.44-3.45-1.19-6.95-2.17-10.48-2.98,2.96-2.01,5.88-3.91,8.52-5.62,2.09-1.35,4.46-2.88,6.89-4.08Zm-20.42,8.65c.63-.18,1.26-.38,1.9-.62-.37,.26-.75,.51-1.12,.77-.26-.05-.52-.1-.78-.15Zm-9.52-1.46c-.08,0-.16-.02-.25-.03,.09,0,.17-.01,.26-.01v.04ZM88.69,872.36c-2.92-9.45-5.67-18.95-8.41-28.45-.19-.66-.37-1.31-.55-1.96-2.68-11.84-4.43-24.53-4.12-37.49,.25-2.06,.6-4.13,1.05-6.24,.15-.7-.17-1.22-.63-1.49,.18-1.94,.4-3.89,.68-5.84,.01-.08-.01-.15-.01-.23,4.37-3.21,8.49-6.45,12.53-9.63,8.67-6.84,16.92-13.35,27.04-19.12-.09,.26-.19,.5-.26,.77-.8,2.81-.78,5.66-.66,8.83,2.02,58.17,18.53,116.04,47.72,167.35,.2,.35,.45,.79,.75,1.29,1.42,2.36,4.01,6.07,7.57,7.61-12.06,6.22-23.69,13.27-35,20.82-19.81-29.96-35.84-62.32-47.69-96.23Zm90.23,71.49c-1.3,.73-2.57,1.4-3.87,1.5-3.05,.24-6.1-2.4-9.29-8.02-28.95-50.88-45.31-108.25-47.31-165.92-.1-2.9-.13-5.5,.55-7.87,1.78-6.2,7.88-9.58,14.84-12.02-.26,.39-.49,.79-.7,1.2-4.31,4.45-2.15,14.31-1.15,19.98,.37,2.09,.74,4.19,1.1,6.28,2.78,25.12,8.05,50.12,13.2,74.43,1.69,8,3.44,16.27,6.1,24.23,2.39,7.16,5.49,14.02,8.97,20.67,3.97,9.38,9.56,17.99,15.54,26.36,3.15,5.01,7.01,10.33,12.83,11.39,.27,.05,.55,.07,.84,.1-3.71,2.82-7.61,5.4-11.65,7.68Zm355.89-391.35s-.07-.08-.1-.12c-1.33,4.37-2.52,8.78-3.72,13.27-2.34,8.73-4.76,17.76-8.47,27.12l-31.11,78.45c-2.99,7.54-6.08,15.33-10.17,22.42-15.75,27.31-44.91,43.25-73.11,58.66-2.09,1.14-4.18,2.28-6.25,3.42-1.52,.84-3.06,1.71-4.63,2.6-.09-.17-.23-.34-.42-.48-2.31-1.78-4.79-3.29-7.24-4.87-5.13-3.3-7.19-7.3-8.75-13.06-.25-.93-1.81-.75-1.71,.25,.39,3.77,.87,7.9,3.45,10.89,3.14,3.64,7.41,6.6,11.58,9.05-2.38,1.39-4.8,2.84-7.27,4.35-.07-.59-.43-1.15-1.16-1.37-6.51-1.96-12.29-5.74-15.93-11.6-.58-.94-1.99-.08-1.46,.88,3.61,6.48,8.87,11.37,15.96,13.67-55.21,34.17-132.57,96.69-202.82,155.49-13.96-23.46-24.36-48.68-30.99-75.22-3.66-14.64-6.1-29.62-8.94-44.44-1.35-7.05-2.74-14.1-4.13-21.14-.31-1.61-1.05-4.21-1.78-7.19-.31-3.19-.58-6.39-.79-9.58-.06-.95-.12-1.94-.13-2.92,34.99-19.59,70.44-38.42,106.07-56.29,2.95-1.48,5.89-2.93,8.8-4.37,20.47-10.1,39.82-19.64,56.38-35.95,20.21-19.89,35.88-43.96,44.12-67.77,14.18-40.98,15.31-79.75,16.52-120.79,.11-3.91,.23-7.85,.36-11.83,.66-20.55,1.69-42.38,6.34-63.61,5.95-27.2,12.31-58.74,17.92-86.56l1.93-9.55c1.64-8.11,31.09-21.95,57.77-31.38,9.04-3.2,18.4-6.5,28.36-5.15,3.85,.52,7.8,1.49,11.62,2.43,5.1,1.25,10.38,2.55,15.71,2.89,1.94,.12,3.87,.03,5.74-.06,2.21-.1,4.29-.2,6.36,.02,3.27,.36,7.2,1.92,8.46,5.23,1.07,2.82,.78,5.74-.85,8.66-.7,1.25-1.63,2.46-2.72,3.6-.47-.07-.98-.01-1.51,.23-20.64,9.69-44.44,2.32-66.12,7.22-25.75,5.82-39.52,36.2-48.32,58.33-.29,.74,.03,1.42,.53,1.79-.17,.32-.35,.65-.52,.97-.27,.5-.23,1.08,.04,1.54,.14,.23,.34,.43,.6,.57,.76,.4,1.7,.11,2.11-.65,6.83-12.87,14.34-25.57,22.3-37.77,3.99-6.11,8.06-11.91,13.59-15.8,3.81-2.22,7.97-3.87,12.55-4.93,5.6-.93,11.71-.77,18.26-.42,20.13,1.06,45.17,2.37,64.66,15.2,18.96,12.48,27.84,25.27,41.91,46.81,.9,1.41,1.03,3.48,.31,5.34-.51,1.31-1.72,2.44-3.92,3.65-9.88,5.43-22.97,5.09-32.55-.86-2.22-1.38-4.33-3.07-6.37-4.7-2.11-1.69-4.29-3.44-6.67-4.91-.69-.43-1.35-.85-2-1.27-2.64-2.17-5.36-4.17-8.29-5.72-7.1-3.75-15.52-5.7-23.76-5.75-.13-.03-.26-.06-.39-.08-6.29-1.34-12.8-2.73-18.67-4.44-.31-.09-.63-.08-.92,.02-.22-.1-.44-.18-.66-.29-1.85-.96-3.15-2.39-4.59-3.85-.59-.59-1.84,.06-1.48,.89,1.58,3.68,5.63,6.62,9.67,7.19l-4.89,6.63c-5.27,3.88-9.02,9.41-11.5,15.69-1.24,1.78-2.42,3.61-3.44,5.55-3.44,6.51-5,14.15-4.4,21.49,.19,2.32,.7,4.15,1.54,5.54,.32,.53,.69,.98,1.1,1.38-.01,.06-.03,.11-.04,.17-.06,.38,.02,.74,.2,1.04,.23,.38,.62,.66,1.1,.73,13.54,2.09,27.77,1.46,42.28-1.89,2.73-.63,5.51-1.36,8.2-2.07,10.41-2.74,21.17-5.57,31.42-3.16,6.45,1.52,12.31,5.03,17.98,8.43,27.97,16.76,56.89,34.1,79.37,58.5,3.17,3.44,6.66,7.52,7.89,12.36,1.05,4.11,0,9.69-4,11.96-.19,.11-.34,.25-.47,.41-2.78-.38-5.68-.5-8.45-.6-.94-.04-1.87-.07-2.78-.11-6.07-.3-12-1.55-17.82-3.33-.04-.05-.09-.1-.14-.14-31.63-25.84-73.05-37.99-113.63-33.34-1.46,.17-2.88,.39-4.16,1.19-1.34,.84-2.27,2.3-2.54,3.98-.22,1.37,.03,2.72,.66,3.83l-9.75-.31c-.86-.03-1.58,.65-1.61,1.51-.03,.86,.64,1.58,1.51,1.61l52.6,1.69c5.41,.17,11,.36,16.38,1.17,12.35,1.87,24.2,7.14,35.65,12.23,13.56,6.03,27.59,12.27,42.68,13.02,.92,.05,1.86,.08,2.81,.12,7.67,.29,15.6,.58,19.08,6.31v.02c2.03,3.35,1.76,8.21-.67,12.11-1.83,2.93-4.75,5.42-8.7,7.44-.34-.17-.76-.18-1.21,.08-1.39,.82-2.79,1.53-4.19,2.17-14.07,4.78-29.16,1.98-45.06-.96-9.37-1.74-19.06-3.53-28.54-3.64-5.9-.07-12.03,.58-17.95,1.2-7.9,.83-16.04,1.68-23.73,.86-3.5-3.32-6.84-6.76-9.77-10.62-.68-.9-2.11-.1-1.53,.92,1.94,3.44,4.19,6.67,6.84,9.56-.23,.18-.43,.4-.53,.7l-4.64,13.14c-.43,1.23-.88,2.5-1.58,3.53-.94,1.38-2.42,2.45-3.85,3.48l-8.03,5.8c-1.4,.62-2.82,1.21-4.27,1.76-2.43,.91-1.77,4.45,.4,4.52-2.53,10.02-3.91,20.31-4.11,30.64-.06,3.28,0,6.61,.04,9.83,.1,5.72,.19,11.64-.39,17.38-1.92,18.92-11.32,36.85-19.61,52.66-.26,.5-.23,1.08,.05,1.53,.14,.24,.35,.44,.61,.57,.76,.4,1.7,.11,2.1-.66,8.43-16.07,17.98-34.27,19.96-53.8,.6-5.92,.5-11.93,.4-17.75-.05-3.19-.11-6.49-.04-9.72,.21-10.73,1.74-21.41,4.51-31.79,6.62-2.48,13.73-6.02,18.88-10.53,1.49-1.31,2.63-2.69,3.51-4.14,3.42,5.49,6.86,10.96,10.31,16.43-.22-.23-.43-.47-.66-.7Zm-35-90.61c-.44-.52-.61-1.31-.49-2.1,.13-.79,.55-1.48,1.12-1.84,.73-.46,1.72-.6,2.85-.73,12.45-1.43,25.14-1.16,37.65,.66,.03,.09,.07,.18,.13,.27,.61,1.01,1.82,.81,2.41,.12,9.2,1.5,18.27,3.84,27.06,6.97l2.67,4.57c.06,.09,.11,.19,.17,.29-5.49-1.93-11.1-3.51-16.86-4.38-5.57-.84-11.25-1.03-16.78-1.21l-39.62-1.27c.1-.45,0-.95-.31-1.35Zm82.42,8.05c.1,.16,.2,.31,.29,.47,0,.03,0,.06,0,.1h0c-.1-.07-.21-.14-.32-.21,.03-.12,.01-.25-.02-.38l.04,.02Zm-6.96-2.8l-.1-.18s.1,.04,.15,.06c-.02,.04-.03,.08-.04,.12Zm20.37,11.93c.51,.23,1.02,.47,1.54,.69,.34,.2,.68,.4,1.02,.6-.02,.04-.03,.08-.04,.12-.95-.41-1.89-.83-2.83-1.25,.12-.02,.23-.08,.31-.16Zm10.78,4.87c-.16-.18-.33-.34-.5-.51,0-.03,0-.07,0-.1,.44,.31,.87,.62,1.3,.93-.27-.11-.54-.21-.81-.32Zm-50.12,96.07c-9.95-15.39-19.82-30.99-29.58-46.65,.48-1.45,.8-2.97,1-4.56,.14-.5,.27-1.01,.41-1.51,.22,.03,.44,.06,.66,.09,.53,.07,1.05,.14,1.58,.2,.47,.05,.95,.09,1.42,.13-.29,.44-.37,1.01-.01,1.59,1,1.66,3.5,.26,2.82-1.39h.04c.16,.01,.32,.02,.49,.03,6.92,.34,13.98-.1,21.01-.83,10.14-.87,20.3-1.88,30.43-.67,18.48,2.2,38.75,7.86,55.9-1.19,1.32-.44,2.63-.94,3.92-1.51,5.45-2.41,9.44-5.6,11.87-9.49,3.08-4.94,3.36-10.97,.7-15.36v-.02c-2.14-3.5-5.42-5.37-9.17-6.4,.74-.7,1.38-1.48,1.9-2.33,5.75-3.55,11.39-7.33,16.64-11.58,.04-.03,.06-.08,.1-.12,1.39,.34,2.79,.66,4.23,.96,30.32,6.39,62.77-.27,89.01-18.26,24.58-16.85,40.63-41.56,45.18-69.58,3.74-23-1-46.92-13.34-67.35-4.21-6.97-9.26-13.47-15-19.31-7.23-7.36-15.49-13.81-24.34-19.11,.01,0,.02-.02,.03-.02,.63-.58,.68-1.57,.1-2.2-2.53-2.76-5.09-5.51-7.67-8.25,.07-.03,.15-.05,.22-.1,34.08-18.99,68.68-37.87,101.3-59.31,.22-.14,.39-.3,.54-.47,6.81,10.21,13.45,20.55,19.89,31.21,1.37,2.26,2.73,4.54,4.07,6.83,3.43,5.83,6.83,11.7,10.24,17.57,5.86,10.1,11.91,20.54,18.06,30.71,12.04,19.93,22.49,35.56,32.88,49.16,.61,.81,1.2,1.6,1.79,2.37,1.79,2.36,3.47,4.59,4.83,6.74-10.5,7.07-22.01,13.48-33.16,19.67-8.09,4.5-16.46,9.15-24.36,14.01l-2.57,1.58c-18.25,11.23-37.13,22.85-54.86,35.75-52.68,38.33-110.14,71.58-165.71,103.74-25.47,14.74-51.8,29.98-77.31,45.5-6.16,3.75-13.96,9.38-15.26,16.98-3.14-4.42-6.55-10.05-8.64-13.5-.97-1.6-1.76-2.91-2.3-3.74Zm385.67-202.78c-2.04,4.27-8.23,8.45-12.76,11.5-.6,.4-1.17,.79-1.71,1.16-99.98,68.69-213.31,146.54-333.79,205.45-2.58,1.26-4.88,2.89-7.1,4.46-4.93,3.49-8.82,6.25-13.69,3.8-.73-.37-1.66-1.25-2.71-2.47,.02-.14,.03-.28,.01-.43-.97-7.78,7.45-13.87,13.87-17.78,25.48-15.5,51.8-30.73,77.25-45.46,55.64-32.2,113.17-65.5,165.98-103.92,17.63-12.83,36.45-24.41,54.66-35.61l2.57-1.58c7.84-4.82,16.17-9.46,24.24-13.94,11.15-6.19,22.65-12.6,33.21-19.7,2.17,4.28,2.79,8.6-.04,14.51Z"/><path class="d" d="M659.35,434.9c6.09,3.6,13.21,6.22,21.76,8.02,19.87,4.19,41.13-.17,58.33-11.96,16.12-11.05,26.64-27.25,29.63-45.63,2.45-15.09-.65-30.78-8.75-44.19-2.76-4.57-6.07-8.83-9.83-12.66-9.51-9.68-21.73-16.97-34.41-20.54-19.6-5.51-42.44,.13-61.1,15.08-19.33,15.5-30.63,38.19-29.48,59.21,.55,9.97,3.51,19.47,8.8,28.24h0c5.92,9.8,14.58,18.25,25.05,24.43Zm-22.38-26.04c-5.03-8.33-7.84-17.34-8.36-26.79-1.1-20.04,9.75-41.73,28.32-56.61,17.87-14.33,39.67-19.75,58.31-14.52,12.16,3.42,23.89,10.42,33.03,19.72,3.6,3.66,6.76,7.73,9.39,12.09,7.72,12.77,10.68,27.72,8.34,42.08-2.85,17.53-12.91,33-28.31,43.56-16.5,11.31-36.88,15.5-55.93,11.48-8.21-1.73-15.02-4.23-20.82-7.65-10.02-5.92-18.31-13.99-23.96-23.35h0Z"/><path class="d" d="M662.73,430.01c5.57,3.29,12.08,5.69,19.89,7.33,18.17,3.83,37.6-.16,53.32-10.94,14.73-10.1,24.35-24.91,27.08-41.72,2.24-13.8-.6-28.14-8-40.4-2.52-4.18-5.55-8.07-8.99-11.58-8.69-8.85-19.86-15.51-31.45-18.77-17.93-5.04-38.81,.12-55.86,13.79-17.67,14.17-27.99,34.91-26.94,54.13,.5,9.12,3.21,17.8,8.05,25.82,5.41,8.96,13.33,16.68,22.9,22.33Zm76.03-99.75c1.24,1.03,2.44,2.1,3.6,3.21-1.16-1.11-2.37-2.18-3.6-3.21Zm-32.02-14.71c-1.63-.19-3.28-.31-4.93-.36-.48-.01-.97-.02-1.47-.02,2.15,0,4.29,.12,6.4,.38Z"/><path class="d" d="M752.38,216.12c-3.34-.22-6.43,1.12-9.27,2.6-1.76,.92-3.74,2.07-4.87,4.06-.66,1.17-.93,2.46-1.1,3.58-.58,3.85-.31,7.23,.82,10.07,.26,.65,.57,1.28,.94,1.88,1.6,2.65,4.07,4.55,6.76,5.2,1.78,.43,3.55,.32,4.89,.18,4.37-.47,7.67-1.92,9.83-4.3,1.58-1.75,2.63-4.17,3.05-6.99,.57-3.81-.1-7.52-1.88-10.47-2.02-3.34-5.54-5.56-9.17-5.8Zm7.97,15.81c-.33,2.21-1.12,4.07-2.28,5.36-1.62,1.8-4.26,2.91-7.84,3.29-1.62,.17-2.8,.14-3.83-.11-2.33-.56-4.5-2.61-5.54-5.21-.92-2.31-1.14-5.15-.64-8.44,.13-.87,.31-1.78,.72-2.5,.71-1.26,2.17-2.09,3.6-2.84,2.44-1.27,5.06-2.43,7.63-2.25,2.63,.17,5.2,1.82,6.72,4.32,1.4,2.31,1.91,5.29,1.45,8.38Z"/><path class="d" d="M751.73,220.19c-2.38-.16-4.55,.78-6.53,1.81-1.25,.65-2.66,1.47-3.5,2.94-.49,.86-.68,1.79-.8,2.59-.41,2.69-.21,5.06,.59,7.06,.19,.47,.41,.92,.67,1.35h0c1.15,1.91,2.93,3.27,4.88,3.74,1.28,.31,2.53,.23,3.47,.13,3.08-.33,5.42-1.36,6.96-3.07,1.13-1.26,1.89-2.98,2.18-4.98,.4-2.68-.07-5.31-1.34-7.41-1.45-2.39-3.97-3.98-6.59-4.16Zm4.84,11.11c-.14,.97-.51,2.35-1.42,3.36-1.01,1.12-2.68,1.81-4.97,2.06-1.03,.11-1.78,.09-2.41-.06-1.42-.34-2.74-1.61-3.39-3.21-.59-1.47-.72-3.3-.4-5.43,.08-.54,.19-1.1,.43-1.52,.42-.73,1.37-1.27,2.23-1.72,1.58-.82,3.27-1.57,4.88-1.47,1.62,.11,3.2,1.13,4.14,2.68,.88,1.46,1.21,3.35,.91,5.32Z"/><path class="d" d="M600.38,581.7c-4.51,1.16-9.28,4.22-13.24,6.64-1.5,.92-.14,3.04,1.39,2.3,4.18-2.02,9.28-4.36,12.7-7.52,.65-.6-.08-1.62-.86-1.42Z"/><path class="d" d="M622.43,568.99c-4.51,1.16-9.28,4.22-13.24,6.64-1.5,.92-.14,3.04,1.39,2.3,4.18-2.02,9.28-4.36,12.7-7.52,.65-.6-.08-1.62-.86-1.42Z"/><path class="d" d="M644.48,556.28c-4.51,1.16-9.28,4.22-13.24,6.64-1.5,.92-.14,3.04,1.39,2.3,4.18-2.02,9.28-4.36,12.7-7.52,.65-.6-.08-1.62-.86-1.42Z"/><path class="d" d="M666.53,543.57c-4.51,1.16-9.28,4.22-13.24,6.64-1.5,.92-.14,3.04,1.39,2.3,4.18-2.02,9.28-4.36,12.7-7.52,.65-.6-.08-1.62-.86-1.42Z"/><path class="d" d="M688.58,530.86c-4.51,1.16-9.28,4.22-13.24,6.64-1.5,.92-.14,3.04,1.39,2.3,4.18-2.02,9.28-4.36,12.7-7.52,.65-.6-.08-1.62-.86-1.42Z"/><path class="d" d="M710.63,518.14c-4.51,1.16-9.28,4.22-13.24,6.64-1.5,.92-.14,3.04,1.39,2.3,4.18-2.02,9.28-4.36,12.7-7.52,.65-.6-.08-1.62-.86-1.42Z"/><path class="d" d="M732.68,505.43c-4.51,1.16-9.28,4.22-13.24,6.64-1.5,.92-.14,3.04,1.39,2.3,4.18-2.02,9.28-4.36,12.7-7.52,.65-.6-.08-1.62-.86-1.42Z"/><path class="d" d="M754.73,492.72c-4.51,1.16-9.28,4.22-13.24,6.64-1.5,.92-.14,3.04,1.39,2.3,4.18-2.02,9.28-4.36,12.7-7.52,.65-.6-.08-1.62-.86-1.42Z"/><path class="d" d="M776.78,480.01c-4.51,1.16-9.28,4.22-13.24,6.64-1.5,.92-.14,3.04,1.39,2.3,4.18-2.02,9.28-4.36,12.7-7.52,.65-.6-.08-1.62-.86-1.42Z"/><path class="d" d="M797.31,465.79c-4.51,1.16-9.28,4.22-13.24,6.64-1.5,.92-.14,3.04,1.39,2.3,4.18-2.02,9.28-4.36,12.7-7.52,.65-.6-.08-1.62-.86-1.42Z"/><path class="d" d="M821.58,451.73c-4.51,1.16-9.28,4.22-13.24,6.64-1.5,.92-.14,3.04,1.39,2.3,4.18-2.02,9.28-4.36,12.7-7.52,.65-.6-.08-1.62-.86-1.42Z"/><path class="d" d="M844.42,434.3c-4.51,1.16-9.28,4.22-13.24,6.64-1.5,.92-.14,3.04,1.39,2.3,4.18-2.02,9.28-4.36,12.7-7.52,.65-.6-.08-1.62-.86-1.42Z"/><path class="d" d="M870.01,416.41c-4.51,1.16-9.28,4.22-13.24,6.64-1.5,.92-.14,3.04,1.39,2.3,4.18-2.02,9.28-4.36,12.7-7.52,.65-.6-.08-1.62-.86-1.42Z"/><path class="d" d="M895.35,401.1c-4.51,1.16-9.28,4.22-13.24,6.64-1.5,.92-.14,3.04,1.39,2.3,4.18-2.02,9.28-4.36,12.7-7.52,.65-.6-.08-1.62-.86-1.42Z"/><path class="d" d="M919.53,385.89c-4.51,1.16-9.28,4.22-13.24,6.64-1.5,.92-.14,3.04,1.39,2.3,4.18-2.02,9.28-4.36,12.7-7.52,.65-.6-.08-1.62-.86-1.42Z"/><path class="d" d="M652,444.93c-4.71-2-9.86-4.19-12.52-8.82-.58-1.01-1.94-.09-1.5,.91,2.41,5.44,7.49,8.06,12.7,10.35,1.63,.72,2.97-1.74,1.33-2.44Z"/><path class="d" d="M745.11,439.99c-22.48,18.13-52.69,23.13-79.97,13.78-.92-.32-1.53,1.23-.62,1.6,27.75,11.08,59.83,5.8,82.8-13.28,1.51-1.26-.71-3.3-2.21-2.09Z"/><path class="d" d="M760.55,428.05c-1.79,1.89-3.82,3.68-5.35,5.79-.92,1.28,1.13,2.63,2.17,1.58,1.75-1.78,3.1-4.04,4.6-6.03,.73-.98-.53-2.27-1.41-1.34Z"/><path class="d" d="M770.94,421.3c1.35-2.22,2.19-4.89,3.21-7.27,.47-1.09-1.04-1.97-1.65-.9-1.27,2.25-2.88,4.53-3.82,6.94-.59,1.51,1.37,2.68,2.26,1.23Z"/><path class="d" d="M779.31,405.64c.45-1.9,.73-3.86,1.12-5.77,.24-1.17-1.43-1.57-1.78-.44-.59,1.86-1.31,3.72-1.85,5.59-.46,1.6,2.12,2.24,2.51,.62Z"/><path class="d" d="M586.24,306.8c.03,.17,.1,.33,.21,.45,.04,.08,.07,.16,.11,.24,.41,.86,1.58,.21,1.42-.62,22.64-16.75,46.99-30.82,71.35-44.87,.53,.43,1.38-.06,1.22-.7,10.72-6.18,21.43-12.36,31.99-18.78,.62,.56,1.75-.19,1.22-.98-3.06-4.61-6.13-9.21-9.19-13.82-1.67-2.51-3.34-5.03-5.01-7.54-.69-1.03-1.52-2.13-2.77-2.51-5.26-1.62-11.01-2.23-16.42-3.27-5.7-1.1-11.39-2.24-17.1-3.23,.12-.34-.28-.78-.7-.58-10.33,4.98-20.54,10.23-30.78,15.39-5.31,2.68-10.59,5.39-15.65,8.53-3.76,2.34-6.82,4.6-8.42,8.82-2.03,5.36-2.77,11.52-4.04,17.1-1.38,6.07-2.75,12.14-4.13,18.21-.93,4.09-2.55,8.35-.7,12.4,2.41,5.28,4.92,10.51,7.39,15.76Zm-6.22-23.24c.54-2.54,1.13-5.06,1.7-7.59,2.33-10.38,4.4-20.86,6.99-31.17,1.46-5.82,7.13-8.63,11.92-11.45,4.7-2.76,9.62-5.15,14.47-7.63,9.07-4.63,18.19-9.17,27.19-13.92,.05,.04,.11,.08,.19,.1,9.72,2.24,19.53,4.15,29.3,6.19,3.21,.67,5.25,1.16,7.25,4.17,1.39,2.1,2.78,4.19,4.17,6.29,2.94,4.43,5.88,8.86,8.83,13.29-8.82,4.85-17.57,9.83-26.29,14.87,.1-.18,.12-.41-.01-.65-3.17-5.65-6.8-11.08-10.23-16.58-.35-.56-1.22-.04-.88,.53,3.27,5.59,6.39,11.33,9.91,16.76,.14,.22,.34,.31,.54,.31-1.75,1.01-3.49,2.03-5.23,3.04-5.46-8.3-10.85-16.63-15.87-25.21-.29-.5-1.04-.04-.77,.47,4.69,8.73,9.72,17.33,15.32,25.51-3.2,1.86-6.39,3.72-9.58,5.58-4.27-7.82-8.96-15.41-13.07-23.33-.3-.58-1.16-.05-.86,.52,4,7.95,7.91,16.01,12.66,23.55-2.47,1.44-4.94,2.89-7.41,4.33-.01-.02-.01-.04-.03-.06-4.55-6.69-9.02-13.31-12.76-20.51-.29-.57-1.1-.05-.84,.51,3.4,7.28,7.32,14.46,12.32,20.78,.01,.02,.03,.02,.04,.03-2.83,1.65-5.64,3.32-8.46,5-.03-.06-.04-.11-.08-.17-6.32-8.91-10.66-18.96-16.63-28.06,.11-.2,.11-.45-.1-.62-.21-.17-.43-.33-.64-.5-.51-.4-1.27,.13-.91,.74,5.67,9.7,9.97,20.36,16.73,29.39,.04,.06,.09,.08,.14,.13-2.36,1.41-4.71,2.84-7.06,4.27-3.73-5.53-7.54-11-11.23-16.56-.32-.49-1.1-.02-.78,.47,3.58,5.57,6.76,11.56,10.74,16.86-11.38,7-22.56,14.32-33.34,22.22-2-4.25-4-8.51-6.01-12.76-1.53-3.25-2.1-5.56-1.33-9.14Z"/><path class="d" d="M103.91,794.57s-.06-.08-.08-.11c-1-1.44-3.14-.15-2.33,1.41l.06,.13c.32,.85,1.26,1.34,2.11,.83,.84-.51,.85-1.57,.24-2.25Z"/><path class="d" d="M107.53,824.37c-1.08-1.65-3.57-.14-2.61,1.58,.08,.15,.17,.3,.25,.45,.97,1.74,3.73,.07,2.64-1.6-.09-.15-.19-.29-.28-.44Z"/><path class="d" d="M88.21,826.34c.99,1.64,3.54,.1,2.55-1.54-.99-1.64-3.54-.1-2.55,1.54Z"/><path class="d" d="M85.28,796.52c-.14,.1-.29,.19-.43,.29-1.67,1.13-.16,3.62,1.61,2.67,.15-.08,.31-.16,.46-.24,1.81-.97,.05-3.87-1.64-2.72Z"/><path class="d" d="M98.62,808.45l-.7-.21c-1.97-.59-2.78,2.69-.76,3.08l.72,.14c1.97,.38,2.66-2.44,.74-3.01Z"/><path class="d" d="M114.12,844.05c.97,1.6,3.45,.1,2.48-1.5-.97-1.6-3.45-.1-2.48,1.5Z"/><path class="d" d="M94.76,844.83c-.88-1.45-3.13-.09-2.25,1.36l.27,.44c.88,1.45,3.13,.09,2.25-1.36l-.27-.44Z"/><path class="d" d="M103.8,890.33c1,1.65,3.56,.1,2.56-1.55-1-1.65-3.56-.1-2.56,1.55Z"/><path class="d" d="M105.17,865.24c.91,1.51,3.26,.1,2.34-1.42-.91-1.51-3.26-.1-2.34,1.42Z"/><path class="d" d="M128.68,900.51c-.36-.76-1.36-1.18-2.28-.75-2.17,1.03-.43,4.42,1.74,3.74,1.47-.46,1.42-2.25,.54-2.99Z"/><path class="d" d="M127.38,869.41c-.97-1.61-3.47-.1-2.5,1.51,.97,1.61,3.47,.1,2.5-1.51Z"/><path class="d" d="M111.43,902.71c.91,1.5,3.24,.1,2.33-1.41-.91-1.5-3.24-.1-2.33,1.41Z"/><path class="d" d="M130.84,940.13c-1.22-1.69-3.7-.2-2.77,1.67,.31,.62,.7,1.2,1.07,1.78,1.11,1.78,3.83,.13,2.78-1.68-.35-.6-.68-1.21-1.08-1.77Z"/><path class="d" d="M156.66,938.04c-.29,.11-.57,.22-.83,.38-1.7,.98-.09,3.66,1.58,2.61,.26-.17,.49-.35,.72-.56,1.06-.96-.12-2.92-1.47-2.43Z"/><path class="d" d="M135.56,919.68c-1.13-1.86-4.02-.12-2.89,1.75l.54,.89c1.13,1.86,4.02,.12,2.89-1.75l-.54-.89Z"/><path class="d" d="M60.38,876.51c.93,1.54,3.32,.1,2.39-1.44-.93-1.54-3.32-.1-2.39,1.44Z"/><path class="d" d="M76.98,921.39l.89-.53c1.45-.86,.08-3.12-1.35-2.23l-.88,.54c-1.42,.88-.1,3.07,1.34,2.22Z"/><path class="d" d="M40.99,920.99c1.02,1.68,3.63,.11,2.61-1.58-1.02-1.68-3.63-.11-2.61,1.58Z"/><path class="d" d="M39.36,895.26c.49-1.45-1.09-2.68-2.42-2.12-1.43,.59-2.11,2.47-.48,3.36,.52,.28,1.15,.21,1.61-.12,.54-.07,1.05-.42,1.29-1.12Z"/><path class="d" d="M55.1,910.04c.96,1.59,3.43,.1,2.47-1.49-.96-1.59-3.43-.1-2.47,1.49Z"/><path class="d" d="M17,947.61c1.03,1.7,3.67,.11,2.64-1.6-1.03-1.7-3.67-.11-2.64,1.6Z"/><path class="d" d="M15.56,993.38c-1.07-1.76-3.8-.11-2.73,1.65,1.07,1.76,3.8,.11,2.73-1.65Z"/><path class="d" d="M50.26,990.62c1.03,1.7,3.67,.11,2.64-1.6-1.03-1.7-3.67-.11-2.64,1.6Z"/><path class="d" d="M55.81,961.78c1.08,1.78,3.84,.11,2.77-1.67-1.08-1.78-3.84-.11-2.77,1.67Z"/><path class="d" d="M82.7,960.11c1.08,1.79,3.87,.11,2.78-1.68-1.08-1.79-3.86-.11-2.78,1.68Z"/><path class="d" d="M96.43,977.69c.59-.36,1.19-.71,1.78-1.07,1.54-.92,.09-3.31-1.43-2.38-.59,.36-1.18,.72-1.77,1.08-1.52,.93-.1,3.27,1.43,2.36Z"/><path class="d" d="M39.4,1025.08c1.1,1.82,3.93,.12,2.83-1.71-1.1-1.82-3.93-.12-2.83,1.71Z"/><path class="d" d="M7.56,927.84c-1.09-1.8-3.89-.11-2.8,1.69,1.09,1.8,3.89,.11,2.8-1.69Z"/><path class="d" d="M19.25,905c.98,1.62,3.5,.1,2.52-1.52-.98-1.62-3.5-.1-2.52,1.52Z"/><path class="d" d="M24.18,927.5c1.08,1.79,3.87,.11,2.78-1.68-1.08-1.79-3.87-.11-2.78,1.68Z"/><path class="d" d="M37.95,877.93c1.07,1.76,3.8,.11,2.73-1.65-1.07-1.76-3.8-.11-2.73,1.65Z"/><path class="d" d="M66.87,855.6c1.1,1.81,3.91,.11,2.81-1.7-1.1-1.81-3.91-.12-2.81,1.7Z"/><path class="d" d="M65.34,828.62l1.06,1.79c.98,1.65,3.55,.1,2.55-1.54l-1.09-1.77c-.99-1.61-3.48-.11-2.52,1.52Z"/><path class="d" d="M63.32,845.62c-1.01-1.67-3.6-.11-2.59,1.57s3.6,.11,2.59-1.57Z"/><path class="d" d="M6.44,916.37c-.94-1.56-3.37-.1-2.42,1.46,.94,1.56,3.37,.1,2.42-1.46Z"/><path class="d" d="M18.89,918.56c-1.06-1.75-3.78-.11-2.72,1.64,1.06,1.75,3.78,.11,2.72-1.64Z"/><path class="d" d="M23.9,888.84c-1-1.66-3.58-.11-2.58,1.56,1,1.66,3.58,.11,2.58-1.56Z"/><path class="d" d="M52.05,864.04l.9-.51c1.86-1.06,.09-4-1.72-2.84l-.88,.56c-1.77,1.14-.14,3.84,1.69,2.8Z"/><path class="d" d="M78.38,894.76c-.97-1.61-3.47-.1-2.5,1.51s3.47,.1,2.5-1.51Z"/><path class="d" d="M107.3,776.64c-.11,.48-.23,.95-.34,1.43-.42,1.75,2.27,2.42,2.71,.67,.12-.47,.24-.95,.36-1.42,.45-1.76-2.31-2.44-2.73-.67Z"/><path class="d" d="M78.86,804.68c.94,1.55,3.34,.1,2.41-1.45-.94-1.55-3.34-.1-2.41,1.45Z"/><path class="d" d="M127.34,798.45c.9,1.49,3.21,.09,2.31-1.4-.9-1.49-3.21-.09-2.31,1.4Z"/><path class="d" d="M133.64,840.76c.81,1.34,2.89,.09,2.08-1.26-.81-1.34-2.89-.09-2.08,1.26Z"/><path class="d" d="M152.67,894.78c.96,1.58,3.41,.1,2.45-1.48-.96-1.58-3.41-.1-2.45,1.48Z"/><path class="d" d="M162.99,923.74c-1.15-1.99-4.27-.1-3.05,1.84l.55,.88c1.21,1.92,4.16,.14,3.02-1.82l-.52-.9Z"/><path class="d" d="M160.99,943.15c1.11,1.83,3.95,.12,2.84-1.72-1.11-1.83-3.95-.12-2.84,1.72Z"/><path class="d" d="M584.19,382.36c-1.27-2.11-4.55-.13-3.27,1.98,1.27,2.11,4.55,.13,3.27-1.98Z"/><path class="d" d="M583.84,389.85c.82,1.35,2.91,.09,2.09-1.27-.82-1.35-2.91-.09-2.09,1.27Z"/><path class="d" d="M575.2,389.6c-.92-1.52-3.28-.1-2.36,1.43,.92,1.52,3.28,.1,2.36-1.43Z"/><path class="d" d="M561.38,396.13c.91,1.5,3.24,.1,2.33-1.41-.91-1.5-3.24-.09-2.33,1.41Z"/><path class="d" d="M574.68,403.87c-.89-1.48-3.19-.09-2.3,1.39,.89,1.48,3.19,.09,2.3-1.39Z"/><path class="d" d="M579.33,393.78c-.8-1.32-2.84-.08-2.05,1.24s2.84,.08,2.05-1.24Z"/><path class="d" d="M513.29,459.76c-.96-1.58-3.41-.1-2.45,1.48,.96,1.58,3.41,.1,2.45-1.48Z"/><path class="d" d="M525.1,459.3c-.93-1.53-3.3-.1-2.38,1.44s3.3,.1,2.38-1.44Z"/><path class="d" d="M534.54,536.72c.98,1.62,3.5,.1,2.52-1.52-.98-1.62-3.5-.1-2.52,1.52Z"/><path class="d" d="M547.22,532.69c-1.07-1.76-3.8-.11-2.73,1.65,1.07,1.76,3.8,.11,2.73-1.65Z"/><path class="d" d="M559.22,528.03c-1.89,.03-3.26,2.72-1.57,4.02,.22,.17,.47,.38,.63,.55,.54,.55,1.6,.56,2.1-.06,.19-.23,.35-.39,.56-.58,1.53-1.4,.19-3.96-1.72-3.93Z"/><path class="d" d="M545.75,549.97c.88,1.46,3.15,.09,2.27-1.37-.88-1.46-3.15-.09-2.27,1.37Z"/><path class="d" d="M558.75,539.8l-.45,.26c-1.64,.95-.09,3.52,1.52,2.52,.15-.09,.29-.18,.44-.28,1.6-1,.12-3.45-1.51-2.5Z"/><path class="d" d="M579.01,533.17c.15-.09,.29-.18,.44-.28,1.37-.86,.1-2.95-1.29-2.14-.15,.09-.3,.17-.45,.26-1.41,.82-.07,3.02,1.3,2.16Z"/><path class="d" d="M597.87,539.72c-.89-1.47-3.17-.09-2.28,1.38,.89,1.47,3.17,.09,2.28-1.38Z"/><path class="d" d="M575.13,547.39c-.85-1.4-3.02-.09-2.17,1.31,.85,1.4,3.02,.09,2.17-1.31Z"/><path class="d" d="M564.27,567.29c-.94-1.56-3.37-.1-2.42,1.46,.94,1.56,3.37,.1,2.42-1.46Z"/><path class="d" d="M565.24,584.3c-.83-1.37-2.95-.09-2.13,1.28,.83,1.37,2.95,.09,2.13-1.28Z"/><path class="d" d="M602.49,552.7c1,1.54,3.33,.13,2.44-1.47-.08-.15-.17-.3-.25-.45-.91-1.63-3.49-.07-2.47,1.49,.09,.15,.19,.29,.28,.43Z"/><path class="d" d="M657.58,491.52c1.05,1.74,3.76,.11,2.7-1.63-1.05-1.74-3.76-.11-2.7,1.63Z"/><path class="d" d="M666.63,486.05c.87,1.56,3.35,.06,2.38-1.44-.09-.15-.19-.29-.28-.44-.97-1.48-3.2-.13-2.34,1.42,.08,.15,.17,.3,.25,.45Z"/><path class="d" d="M685.41,486.84c-.86-1.43-3.08-.09-2.22,1.34,.86,1.43,3.08,.09,2.22-1.34Z"/><path class="d" d="M714.64,486.17c-.81-1.34-2.89-.08-2.08,1.26,.81,1.34,2.89,.08,2.08-1.26Z"/><path class="d" d="M675.86,493.22c.9,1.49,3.21,.09,2.31-1.4l-.27-.44c-.9-1.49-3.21-.09-2.31,1.4l.27,.44Z"/><path class="d" d="M675.13,508.82c-.93-1.53-3.3-.1-2.38,1.43,.93,1.53,3.3,.1,2.38-1.43Z"/><path class="d" d="M657.11,525.88c.36,.98,1.45,1.53,2.4,.95,.95-.58,.98-1.8,.28-2.57-.11-.12-.22-.25-.34-.37-1-1.1-3.03,.12-2.52,1.52,.06,.16,.11,.31,.17,.47Z"/><path class="d" d="M732.79,479.46c-1.02-1.68-3.63-.11-2.61,1.58,1.02,1.68,3.63,.11,2.61-1.58Z"/><path class="d" d="M691.02,501.65c.15-.08,.31-.16,.46-.24,1.83-.94,.04-3.9-1.64-2.72-.14,.1-.28,.2-.43,.3-1.64,1.15-.18,3.57,1.6,2.66Z"/><path class="d" d="M753.24,471.78c.24,.06,.48,.11,.72,.17,1.56,.37,2.15-2.01,.6-2.41l-.71-.18c-1.56-.41-2.17,2.06-.6,2.43Z"/><path class="d" d="M784.05,446.07c-.93-1.53-3.3-.1-2.38,1.43,.93,1.53,3.3,.1,2.38-1.43Z"/><path class="d" d="M808.17,414.51c-.99-1.63-3.52-.1-2.53,1.53,.99,1.63,3.52,.1,2.53-1.53Z"/><path class="d" d="M809.25,387.77c.95,1.57,3.39,.1,2.44-1.47-.95-1.57-3.39-.1-2.44,1.47Z"/><path class="d" d="M767.73,280.12c-.14,.1-.28,.2-.43,.3-1.48,1.05-.16,3.23,1.45,2.41l.46-.24c1.66-.85,.03-3.54-1.49-2.47Z"/><path class="d" d="M791.71,257.73c-.24-.06-.48-.12-.71-.18-1.67-.41-2.31,2.18-.64,2.59l.71,.18c1.67,.41,2.31-2.18,.64-2.59Z"/><path class="d" d="M812.79,292.81c.82,1.36,2.93,.09,2.11-1.27l-.27-.44c-.82-1.36-2.93-.09-2.11,1.27l.27,.44Z"/><path class="d" d="M792.95,297.11l-.71-.18c-1.52-.38-2.1,1.98-.58,2.36l.71,.18c1.52,.38,2.1-1.98,.58-2.36Z"/><path class="d" d="M829.85,346.2c-.9-1.49-3.21-.09-2.31,1.4,.9,1.49,3.21,.09,2.31-1.4Z"/><path class="d" d="M846.61,401c-.93-1.53-3.3-.1-2.38,1.44,.93,1.53,3.3,.1,2.38-1.44Z"/><path class="d" d="M886.04,365.65c-.99-1.63-3.52-.1-2.53,1.53,.99,1.63,3.52,.1,2.53-1.53Z"/><path class="d" d="M847.73,305.07c-1.05-1.73-3.73-.11-2.69,1.62s3.73,.11,2.69-1.62Z"/><path class="d" d="M868.68,276.64c-.99-1.63-3.52-.1-2.53,1.53,.99,1.63,3.52,.1,2.53-1.53Z"/><path class="d" d="M841.91,254.59c-.93-1.53-3.3-.1-2.38,1.43,.93,1.53,3.3,.1,2.38-1.43Z"/><path class="d" d="M808.55,336.58l-.71-.18c-1.91-.47-2.64,2.49-.73,2.96,.24,.06,.48,.12,.71,.18,1.91,.47,2.64-2.49,.73-2.96Z"/><path class="d" d="M912.26,351.63c-1.05-1.73-3.73-.11-2.69,1.62,1.05,1.73,3.73,.11,2.69-1.62Z"/><path class="d" d="M753.59,278.82c1.05,1.73,3.73,.11,2.69-1.62s-3.73-.11-2.69,1.62Z"/><path class="d" d="M762.12,270.03c-1-1.59-3.42-.12-2.48,1.5,.09,.15,.17,.3,.26,.45,.95,1.63,3.5,.09,2.5-1.51-.09-.15-.18-.29-.28-.44Z"/><path class="d" d="M776.82,293.15l-.9,.51c-1.92,1.09-.09,4.13,1.77,2.94l.87-.56c1.83-1.17,.15-3.97-1.75-2.89Z"/><path class="d" d="M783.1,65.15c-.2-5.24,4.79-10.37,7.46-14.47,2.74-4.22,5.48-8.43,8.22-12.65,5.47-8.42,10.91-16.89,15.71-25.71,3.55-6.53-6.1-11.88-9.99-5.62-6.35,10.23-11.81,21.01-17.34,31.7-4.05,7.83-11.6,17.62-10.71,26.86,.41,4.21,6.81,4.23,6.64-.11Z"/><path class="d" d="M749.5,61.77c.31,3.35,5.61,4.49,6.25,.74,3.27-19.34,3.13-39.09,.16-58.44-.99-6.46-11.93-4.74-11.35,1.72,1.67,18.66,3.21,37.34,4.95,55.98Z"/><path class="d" d="M722.61,66.15c2.22,3.57,6.83,.91,6.26-2.76-2.52-16.27-9.31-33.23-17.56-47.47-3.22-5.55-12.78-1.58-10.44,4.6,5.85,15.45,12.99,31.61,21.73,45.63Z"/><path class="d" d="M799.57,86.13c15.55-8.03,31.81-14.04,47.83-20.97,5.79-2.5,3.57-11.64-2.84-9.69-17.42,5.28-33.39,15.08-47.86,25.93-2.84,2.12-.34,6.4,2.87,4.74Z"/><path class="d" d="M848.4,111.43c-13.45-5.53-29.28-8-43.79-7.16-3.37,.2-4.09,5.07-.71,5.95,13.51,3.53,27.21,7.28,40.84,10.29,5.24,1.16,9.03-6.89,3.66-9.09Z"/><path class="d" d="M662.02,59.45c10.9,6.72,20.45,14.36,30.34,22.41,2.93,2.39,8.18-.98,5.55-4.43-8.12-10.66-19.63-19.66-31.39-25.97-5.23-2.81-9.51,4.89-4.5,7.98Z"/><path class="d" d="M26.85,840.77c-.11,.08-.22,.15-.33,.23-1.72,1.2-.12,3.77,1.71,2.76,.12-.06,.23-.13,.35-.19,1.86-1.02,0-4.01-1.73-2.8Z"/><path class="d" d="M56.24,818.32c.91,1.47,3.19,.06,2.28-1.41-.91-1.47-3.19-.06-2.28,1.41Z"/><path class="d" d="M42.67,844.93c-.34,.2-.69,.29-1.01,.63-.98,1.06,.1,2.81,1.49,2.39,.45-.13,.69-.41,1.01-.63,1.51-1.02,.09-3.3-1.49-2.4Z"/><path class="d" d="M4.75,882.11c1.02-.93-.15-2.81-1.44-2.31-.25,.1-.48,.19-.7,.35-1.49,1.09-.13,3.29,1.51,2.44,.24-.12,.43-.29,.62-.47Z"/><path class="d" d="M51.06,829.64c.18,.05,.37,.1,.55,.15,1.55,.42,2.14-2.11,.57-2.42-.19-.04-.37-.07-.56-.11-1.55-.3-2.08,1.96-.56,2.38Z"/><path class="d" d="M67.28,805.4c.11-.07,.22-.15,.33-.22,1.34-.9,.08-2.92-1.32-2.12-.12,.07-.23,.13-.35,.2-1.41,.81-.02,3.05,1.33,2.15Z"/><path class="d" d="M26.74,832.85c-.86-1.39-3.02-.05-2.16,1.34,.86,1.39,3.02,.05,2.16-1.34Z"/><path class="d" d="M3.15,842.29c-.78-1.25-2.72-.05-1.94,1.21,.78,1.25,2.72,.05,1.94-1.21Z"/><path class="d" d="M70.74,1007.06c.31,.09,.58,.15,.91,.14,1.39-.06,1.82-1.92,.61-2.59-.28-.16-.56-.23-.88-.28-1.79-.31-2.38,2.22-.64,2.73Z"/><path class="d" d="M16.44,979.1c1,1.62,3.51,.06,2.51-1.56-1-1.62-3.51-.06-2.51,1.56Z"/><path class="d" d="M86.26,938.46c1.23,.06,1.68-1.85,.55-2.34-.27-.12-.54-.24-.84-.3-1.64-.33-2.21,2.09-.59,2.53,.29,.08,.58,.09,.88,.11Z"/><path class="d" d="M104.91,963.58c.15-.26,.31-.51,.46-.77,.43-.71,.07-1.7-.64-2.07-.78-.41-1.63-.07-2.07,.64-.16,.25-.32,.51-.48,.76-.45,.71-.06,1.71,.64,2.08,.77,.41,1.65,.08,2.08-.64Z"/><path class="d" d="M15.5,1026.78c-.59-.01-1.2-.08-1.79,0-1.03,.15-1.03,1.93,0,2.08,.59,.08,1.19,.02,1.79,0,1.34-.03,1.34-2.06,0-2.09Z"/><path class="d" d="M8.5,1011.29c-1.33,0-1.33,2.06,0,2.06s1.33-2.06,0-2.06Z"/><path class="d" d="M34,1006.73c-1.41,0-1.41,2.18,0,2.18s1.41-2.18,0-2.18Z"/><path class="d" d="M43.52,950.82l-.05,.5c-.12,1.33,2.19,1.33,2.06,0-.02-.17-.03-.33-.05-.5-.12-1.27-1.85-1.27-1.97,0Z"/></g></g></g></svg>